<svg xmlns="http://www.w3.org/2000/svg" version="1.1" xmlns:xlink="http://www.w3.org/1999/xlink" xmlns:svgjs="http://svgjs.dev/svgjs" width="2000" height="393" viewBox="0 0 2000 393"><g transform="matrix(1,0,0,1,-1.2121212121212466,0.7521181989794457)"><svg viewBox="0 0 396 78" data-background-color="#ffffff" preserveAspectRatio="xMidYMid meet" height="393" width="2000" xmlns="http://www.w3.org/2000/svg" xmlns:xlink="http://www.w3.org/1999/xlink"><g id="tight-bounds" transform="matrix(1,0,0,1,0.2400000000000091,-0.1492753677363794)"><svg viewBox="0 0 395.52 78.29855073547273" height="78.29855073547273" width="395.52"><g><svg viewBox="0 0 513.6869108254117 101.69129411764705" height="78.29855073547273" width="395.52"><g><svg viewBox="0 0 395.52 101.69129411764705" height="101.69129411764705" width="395.52"><g id="textblocktransform"><svg viewBox="0 0 395.52 101.69129411764705" height="101.69129411764705" width="395.52" id="textblock"><g><svg viewBox="0 0 395.52 101.69129411764705" height="101.69129411764705" width="395.52"><g transform="matrix(1,0,0,1,0,0)"><svg width="395.52" viewBox="3.8299999999999996 -39.87 200.83999999999997 51.22" height="101.69129411764705" data-palette-color="#84bf41"><g class="wordmark-text-0" data-fill-palette-color="primary" id="text-0"><path d="M4.27-0.37L3.86-9.08Q3.86-9.11 3.85-9.13 3.83-9.16 3.83-9.18L3.83-9.18Q3.83-9.59 4.27-9.59L4.27-9.59Q4.49-9.59 4.76-9.38L4.76-9.38Q6.08-8.13 7.69-7.4 9.3-6.67 11.21-6.67L11.21-6.67Q11.72-6.67 12.38-6.77 13.04-6.88 13.62-7.14 14.21-7.4 14.61-7.81 15.01-8.23 15.01-8.86L15.01-8.86Q15.01-9.57 14.67-10.13 14.33-10.69 13.77-11.08L13.77-11.08Q13.55-11.23 13.11-11.57 12.67-11.91 12.11-12.35 11.55-12.79 10.94-13.29 10.33-13.79 9.78-14.25 9.23-14.7 8.79-15.06 8.35-15.43 8.13-15.63L8.13-15.63Q6.69-16.7 5.85-17.8 5-18.9 4.57-20.09 4.13-21.29 4-22.57 3.88-23.85 3.88-25.29L3.88-25.29Q3.88-27.44 4.91-29.37 5.93-31.3 7.8-32.73 9.67-34.16 12.28-35 14.89-35.84 18.09-35.84L18.09-35.84Q18.48-35.84 19.26-35.75 20.04-35.67 20.98-35.47 21.92-35.28 22.9-34.94 23.88-34.59 24.68-34.06L24.68-34.06Q24.95-33.86 25.11-33.67 25.27-33.47 25.32-33.06L25.32-33.06Q25.44-31.08 25.51-29.16 25.59-27.25 25.71-25.1L25.71-25.1Q25.71-24.68 25.54-24.55 25.37-24.41 25.1-24.41L25.1-24.41Q24.83-24.41 24.68-24.56L24.68-24.56Q23.97-25.27 23.22-25.95 22.46-26.64 21.63-27.16 20.8-27.69 19.86-28 18.92-28.32 17.82-28.32L17.82-28.32Q17.16-28.32 16.5-28.21 15.84-28.1 15.31-27.81 14.77-27.51 14.44-27 14.11-26.49 14.11-25.71L14.11-25.71Q14.11-24.88 14.32-24.27 14.53-23.66 15.36-23.12L15.36-23.12 21.22-19.14Q22.83-17.99 23.83-16.86 24.83-15.72 25.39-14.6 25.95-13.48 26.16-12.39 26.37-11.3 26.37-10.25L26.37-10.25Q26.37-8.54 25.81-7.03 25.24-5.52 24.27-4.24 23.29-2.95 21.98-1.94 20.68-0.93 19.19-0.21 17.7 0.51 16.1 0.89 14.5 1.27 12.96 1.27L12.96 1.27Q11.77 1.27 10.61 1.23 9.45 1.2 8.35 1.04 7.25 0.88 6.23 0.55 5.2 0.22 4.27-0.37L4.27-0.37ZM43.19 1.27L43.19 1.27Q39.74 1.27 37.14 0.15 34.54-0.98 32.79-2.84 31.03-4.71 30.15-7.14 29.27-9.57 29.27-12.18L29.27-12.18Q29.27-14.79 30.12-17.15 30.98-19.51 32.52-21.37 34.06-23.24 36.2-24.5 38.35-25.76 40.94-26.2L40.94-26.2Q41.33-26.22 41.33-26.37L41.33-26.37Q41.33-26.64 41.27-26.87 41.21-27.1 41.21-27.27L41.21-27.27Q41.21-27.54 41.31-27.64 41.4-27.73 41.53-27.73L41.53-27.73Q46.19-27.73 49.46-26.67 52.73-25.61 54.78-23.78 56.83-21.95 57.76-19.46 58.69-16.97 58.69-14.11L58.69-14.11Q58.69-10.47 57.47-7.62 56.25-4.76 54.14-2.78 52.02-0.81 49.2 0.23 46.38 1.27 43.19 1.27ZM38.67-12.45L38.67-12.45Q38.67-11.13 38.95-9.84 39.23-8.54 39.88-7.5 40.52-6.45 41.57-5.8 42.62-5.15 44.19-5.15L44.19-5.15Q45.31-5.2 46.15-5.65 46.99-6.1 47.6-6.82 48.22-7.54 48.62-8.45 49.02-9.35 49.25-10.31 49.48-11.28 49.58-12.21 49.68-13.13 49.68-13.89L49.68-13.89Q49.68-15.16 49.3-16.38 48.92-17.6 48.19-18.53 47.46-19.46 46.37-20.03 45.29-20.61 43.87-20.61L43.87-20.61Q42.4-20.61 41.4-19.74 40.4-18.87 39.8-17.6 39.21-16.33 38.94-14.93 38.67-13.53 38.67-12.45ZM64.55 0.37L64.55 0.37Q64.57 0.1 64.66-0.79 64.74-1.68 64.86-3.05 64.99-4.42 65.14-6.19 65.3-7.96 65.5-10 65.69-12.04 65.9-14.26 66.11-16.48 66.33-18.75L66.33-18.75 63.08-18.75Q61.76-18.75 61.18-18.86 60.59-18.97 60.59-19.31L60.59-19.31Q60.59-19.41 60.83-19.84 61.08-20.26 61.46-20.86 61.84-21.46 62.28-22.14 62.71-22.83 63.12-23.43 63.52-24.02 63.81-24.46 64.11-24.9 64.18-25L64.18-25 67.16-25 67.65-28.88Q67.99-31.96 68.88-34.06 69.77-36.16 71.1-37.45 72.43-38.75 74.14-39.31 75.85-39.87 77.8-39.87L77.8-39.87Q79.76-39.87 81.87-39.39 83.98-38.92 86.13-38.09L86.13-38.09Q86.59-37.89 86.82-37.76 87.06-37.62 87.06-37.4L87.06-37.4Q87.06-37.21 86.88-36.89L86.88-36.89Q86.1-35.38 85.72-34.45 85.35-33.52 85.13-32.98 84.91-32.45 84.76-32.26 84.61-32.08 84.32-32.08L84.32-32.08Q84.17-32.08 84.02-32.15 83.86-32.23 83.64-32.32L83.64-32.32Q82.78-32.64 81.92-32.9 81.05-33.15 80.27-33.15L80.27-33.15Q79.17-33.15 78.38-32.47 77.58-31.79 77.12-29.88L77.12-29.88Q76.85-28.78 76.68-27.51 76.51-26.25 76.39-25L76.39-25 82.76-25Q82.95-25 83.14-24.87 83.32-24.73 83.32-24.41L83.32-24.41Q83.32-24.29 83.03-23.54 82.73-22.78 82.2-21.56L82.2-21.56 81.32-19.58Q81.15-19.21 80.96-19.04 80.78-18.87 80.22-18.82L80.22-18.82 76-18.82Q75.73-16.28 75.48-13.79 75.24-11.3 75.02-9.12 74.8-6.93 74.63-5.24 74.46-3.54 74.36-2.61L74.36-2.61Q74.34-2.54 74.34-2.34L74.34-2.34Q74.34-2.25 74.35-2.17 74.36-2.1 74.36-2.05L74.36-2.05Q74.36-1.83 74.2-1.7 74.04-1.56 73.38-1.39L73.38-1.39 66.96 0.88Q66.69 0.98 66.25 1.12 65.82 1.27 65.4 1.27L65.4 1.27Q64.99 1.27 64.77 1.07 64.55 0.88 64.55 0.37ZM101.73-18.82L97.18-18.82Q96.84-16.26 96.54-13.71 96.23-11.16 96.16-8.94L96.16-8.94Q96.16-7.98 96.31-7.35 96.45-6.71 96.73-6.35 97.01-5.98 97.4-5.82 97.8-5.66 98.28-5.66L98.28-5.66Q99.06-5.66 99.99-5.9 100.92-6.13 101.85-6.49L101.85-6.49Q102.14-6.62 102.35-6.68 102.56-6.74 102.7-6.74L102.7-6.74Q102.95-6.74 103.03-6.52 103.12-6.3 103.2-5.75 103.29-5.2 103.46-4.27 103.63-3.34 104.02-1.93L104.02-1.93Q104.05-1.81 104.06-1.72 104.07-1.64 104.07-1.56L104.07-1.56Q104.07-1.22 103.81-1.07 103.56-0.93 102.97-0.73L102.97-0.73Q101.97-0.39 100.86-0.04 99.75 0.32 98.66 0.61 97.58 0.9 96.57 1.09 95.57 1.27 94.82 1.27L94.82 1.27Q90.74 1.27 88.87-0.76 87-2.78 87-6.93L87-6.93Q87-7.64 87.05-8.39 87.1-9.13 87.18-9.94L87.18-9.94Q87.42-12.38 87.6-14.56 87.79-16.75 87.98-18.75L87.98-18.75 85.42-18.75Q84.1-18.75 83.51-18.86 82.93-18.97 82.93-19.31L82.93-19.31Q82.93-19.41 83.17-19.84 83.42-20.26 83.79-20.86 84.17-21.46 84.61-22.14 85.05-22.83 85.45-23.43 85.86-24.02 86.15-24.46 86.44-24.9 86.52-25L86.52-25 88.25-25Q88.47-26.86 88.6-28.11 88.74-29.37 88.82-30.2 88.91-31.03 88.98-31.48 89.06-31.93 89.14-32.15 89.23-32.37 89.36-32.43 89.49-32.5 89.71-32.54L89.71-32.54Q90.81-32.76 91.84-32.95 92.86-33.13 93.89-33.33 94.91-33.52 95.98-33.78 97.04-34.03 98.19-34.38L98.19-34.38Q98.26-34.38 98.28-34.39 98.31-34.4 98.38-34.4L98.38-34.4Q98.67-34.4 98.67-34.2L98.67-34.2 98.67-34.16Q98.55-32.81 98.3-30.42 98.04-28.03 97.72-25L97.72-25 104.26-25Q104.46-25 104.64-24.87 104.83-24.73 104.83-24.41L104.83-24.41Q104.83-24.29 104.53-23.54 104.24-22.78 103.7-21.56L103.7-21.56 102.82-19.58Q102.65-19.21 102.47-19.04 102.29-18.87 101.73-18.82L101.73-18.82ZM122.6-0.95L117.23 11.13Q117.18 11.23 117.12 11.29 117.06 11.35 116.91 11.35L116.91 11.35Q116.76 11.35 116.69 11.33L116.69 11.33Q115.81 11.01 115.03 10.79 114.25 10.57 113.48 10.39 112.71 10.21 111.9 10.05 111.1 9.89 110.2 9.69L110.2 9.69Q109.95 9.64 109.82 9.53 109.68 9.42 109.68 9.16L109.68 9.16Q109.68 9.08 109.77 8.8 109.85 8.52 110.2 7.65 110.54 6.79 111.24 5.14 111.95 3.49 113.2 0.71L113.2 0.71Q112.83-0.51 112.37-2.22 111.9-3.93 111.38-5.96 110.85-7.98 110.29-10.24 109.73-12.5 109.16-14.81 108.58-17.11 108.01-19.37 107.44-21.63 106.9-23.68L106.9-23.68Q106.73-24.07 106.7-24.33 106.68-24.58 106.68-24.76L106.68-24.76Q106.68-25.1 107.07-25.2L107.07-25.2Q108.97-25.61 111.03-26.06 113.08-26.51 114.91-27.22L114.91-27.22Q114.98-27.25 115.13-27.25L115.13-27.25Q115.44-27.25 115.47-27L115.47-27 118.45-10.6Q118.54-10.89 118.83-11.66 119.11-12.43 119.48-13.5 119.86-14.58 120.33-15.87 120.79-17.16 121.28-18.51 121.77-19.85 122.24-21.18 122.72-22.51 123.13-23.66 123.55-24.8 123.85-25.68 124.16-26.56 124.33-27L124.33-27Q124.43-27.25 124.7-27.25L124.7-27.25Q124.77-27.25 124.79-27.23 124.82-27.22 124.89-27.22L124.89-27.22Q126.72-26.51 128.65-26.06 130.58-25.61 132.49-25.2L132.49-25.2Q132.95-25.1 132.95-24.66L132.95-24.66Q132.95-24.34 132.66-23.68L132.66-23.68 122.6-0.95ZM157.36-32.15L157.36-32.15Q157.36-33.03 157.52-33.36 157.68-33.69 158.17-33.81L158.17-33.81 166.56-35.84Q166.88-35.94 167.22-35.94L167.22-35.94Q167.57-35.94 167.69-35.73 167.81-35.52 167.81-34.89L167.81-34.89 167.52-31.05Q167.39-29.37 167.25-27.71 167.1-26.05 166.81-24.8L166.81-24.8 166.37-21.34Q166.17-19.8 166-18.01 165.83-16.21 165.64-13.99L165.64-13.99 164.49-1.95Q164.47-1.73 164.39-1.51 164.32-1.29 164.07-1.2L164.07-1.2Q163.9-1.12 163.28-0.88 162.66-0.63 161.8-0.32 160.95 0 159.97 0.35 159 0.71 158.12 1 157.24 1.29 156.55 1.49 155.87 1.68 155.63 1.68L155.63 1.68Q155.29 1.68 155.03 1.5 154.77 1.32 154.77 0.81L154.77 0.81Q154.77-2.15 155.11-5.24 155.46-8.33 155.72-11.38L155.72-11.38Q155.77-11.72 155.76-12.01 155.75-12.3 155.8-12.65L155.8-12.65 146.86-12.65 145.86-1.95Q145.84-1.73 145.78-1.53 145.72-1.32 145.45-1.2L145.45-1.2Q145.35-1.15 144.48-0.84 143.62-0.54 142.48-0.13 141.34 0.27 140.23 0.67 139.12 1.07 138.54 1.29L138.54 1.29Q138.24 1.42 137.82 1.55 137.39 1.68 136.97 1.68L136.97 1.68Q136.63 1.68 136.38 1.49 136.12 1.29 136.12 0.78L136.12 0.78Q136.12-0.39 136.21-1.89 136.29-3.39 136.41-5.04 136.54-6.69 136.71-8.42 136.88-10.16 137.05-11.84L137.05-11.84 137.1-12.55Q135.12-12.55 134.23-12.66 133.34-12.77 133.34-13.23L133.34-13.23Q133.34-13.55 133.7-14.06L133.7-14.06Q134.19-14.75 134.84-15.71 135.49-16.67 136.08-17.61 136.68-18.55 137.16-19.3 137.63-20.04 137.78-20.26L137.78-20.26 138.34-26.15Q138.34-26.2 138.39-26.88 138.44-27.56 138.51-28.5 138.59-29.44 138.67-30.44 138.76-31.45 138.83-32.15L138.83-32.15Q138.88-33.01 138.96-33.35 139.05-33.69 139.54-33.81L139.54-33.81 147.84-35.84Q148.16-35.94 148.5-35.94L148.5-35.94Q148.84-35.94 148.96-35.73 149.08-35.52 149.08-34.89L149.08-34.89Q148.91-33.13 148.82-31.69 148.72-30.25 148.61-29 148.5-27.76 148.38-26.64 148.25-25.51 148.03-24.34L148.03-24.34 147.55-20.56 156.41-20.65Q156.63-23.9 156.9-26.17 157.17-28.44 157.24-29.76L157.24-29.76Q157.31-31.01 157.34-31.54 157.36-32.08 157.36-32.15ZM184.99-15.48L183.8-1.95Q183.77-1.73 183.71-1.53 183.65-1.32 183.38-1.2L183.38-1.2Q183.29-1.15 182.42-0.84 181.55-0.54 180.42-0.13 179.28 0.27 178.17 0.67 177.06 1.07 176.47 1.29L176.47 1.29Q176.18 1.42 175.75 1.55 175.33 1.68 174.91 1.68L174.91 1.68Q174.57 1.68 174.31 1.51 174.06 1.34 174.06 0.88L174.06 0.88Q174.06-0.2 174.12-1.09 174.18-1.98 174.28-2.95 174.37-3.93 174.48-5.11 174.59-6.3 174.69-7.93L174.69-7.93Q174.81-10.08 174.96-12.07 175.11-14.06 175.25-16.21L175.25-16.21 175.6-20.39Q175.67-21.41 175.74-22.47 175.82-23.54 175.89-24.66L175.89-24.66 176.16-27.64Q176.16-27.69 176.01-27.69L176.01-27.69Q175.82-27.69 175.35-27.6 174.89-27.51 174.25-27.39 173.62-27.27 172.85-27.14 172.08-27 171.27-26.88L171.27-26.88Q171.08-26.88 170.9-26.97 170.71-27.05 170.71-27.17L170.71-27.17Q170.71-27.27 170.76-27.32L170.76-27.32 174.72-34.23Q176.06-34.52 177.61-34.83 179.16-35.13 180.94-35.38 182.72-35.62 184.73-35.78 186.73-35.94 188.97-35.94L188.97-35.94Q191.51-35.89 193.92-35.44 196.32-34.99 198.19-33.92 200.06-32.86 201.19-31.04 202.33-29.22 202.33-26.44L202.33-26.44Q202.33-24.9 201.8-23.61 201.28-22.31 200.46-21.28 199.64-20.24 198.67-19.45 197.69-18.65 196.8-18.09 195.91-17.53 195.22-17.2 194.54-16.87 194.3-16.77L194.3-16.77Q194.3-16.72 194.33-16.65 194.37-16.58 194.49-16.37 194.61-16.16 194.85-15.78 195.08-15.41 195.44-14.75L195.44-14.75Q195.83-14.16 196.37-13.18 196.91-12.21 197.65-10.88 198.4-9.55 199.37-7.91 200.35-6.27 201.62-4.39L201.62-4.39Q202.04-4.03 202.57-3.94 203.11-3.86 203.57-3.85 204.04-3.83 204.36-3.8 204.67-3.76 204.67-3.49L204.67-3.49Q204.67-3.3 204.27-3.04 203.87-2.78 203.33-2.51 202.79-2.25 202.24-2 201.69-1.76 201.4-1.61L201.4-1.61Q200.82-1.32 200.18-1.05 199.55-0.78 198.81-0.45 198.08-0.12 197.19 0.32 196.3 0.76 195.18 1.37L195.18 1.37Q194.88 1.54 194.63 1.6 194.37 1.66 194.15 1.66L194.15 1.66Q193.71 1.66 193.39 1.45 193.08 1.25 192.86 0.95 192.64 0.66 192.5 0.35 192.37 0.05 192.27-0.15L192.27-0.15 184.99-15.48ZM186.26-28.86L185.29-18.48Q186.53-18.48 187.88-19.12 189.22-19.75 190.32-20.75 191.42-21.75 192.12-23.02 192.83-24.29 192.83-25.59L192.83-25.59Q192.83-29.13 188.58-29.13L188.58-29.13Q187.78-29.13 187.24-29.02 186.7-28.91 186.26-28.86L186.26-28.86Z" fill="#84bf41" data-fill-palette-color="primary"></path></g></svg></g></svg></g></svg></g></svg></g><g transform="matrix(1,0,0,1,419.52687395011765,3.765628621176468)"><svg viewBox="0 0 94.16003687529411 94.16003687529411" height="94.16003687529411" width="94.16003687529411"><g><svg xmlns="http://www.w3.org/2000/svg" xmlns:xlink="http://www.w3.org/1999/xlink" version="1.1" x="0" y="0" viewBox="2 2 60 60" style="enable-background:new 0 0 64 64;" xml:space="preserve" height="94.16003687529411" width="94.16003687529411" class="icon-icon-0" data-fill-palette-color="accent" id="icon-0"><path d="M26.343 31.485l1.599-1.599c0.635 0.375 1.326 0.663 2.058 0.852V33h4v-2.262c0.732-0.189 1.422-0.477 2.058-0.852l1.599 1.599 2.828-2.828-1.599-1.599c0.375-0.635 0.663-1.326 0.852-2.058H42v-4h-2.262c-0.189-0.732-0.477-1.422-0.852-2.058l1.599-1.599-2.828-2.828-1.599 1.599c-0.635-0.375-1.326-0.663-2.058-0.852V13h-4v2.262c-0.732 0.189-1.422 0.477-2.058 0.852l-1.599-1.599-2.828 2.828 1.599 1.599c-0.375 0.635-0.663 1.326-0.852 2.058H22v4h2.262c0.189 0.732 0.477 1.422 0.852 2.058l-1.599 1.599L26.343 31.485zM32 19c2.209 0 4 1.791 4 4 0 2.209-1.791 4-4 4s-4-1.791-4-4C28 20.791 29.791 19 32 19z" fill="#84bf41" data-fill-palette-color="accent"></path><path d="M32 2c-4.335 0-8.645 1.052-12.462 3.042l0.924 1.773C23.996 4.974 27.985 4 32 4s8.004 0.974 11.538 2.816l0.924-1.773C40.645 3.052 36.335 2 32 2z" fill="#84bf41" data-fill-palette-color="accent"></path><path d="M7.018 28.038c0.088-2.299 0.487-4.563 1.188-6.73l-1.902-0.615c-0.757 2.342-1.188 4.788-1.283 7.27L7.018 28.038z" fill="#84bf41" data-fill-palette-color="accent"></path><path d="M13.308 48.483c0.661 0.634 1.36 1.24 2.077 1.8l1.23-1.576c-0.663-0.519-1.311-1.079-1.923-1.667L13.308 48.483z" fill="#84bf41" data-fill-palette-color="accent"></path><path d="M47.384 48.708l1.232 1.575c1.109-0.867 2.157-1.827 3.114-2.852l-1.461-1.365C49.383 47.015 48.412 47.904 47.384 48.708z" fill="#84bf41" data-fill-palette-color="accent"></path><path d="M57.339 21l-1.877 0.692c0.685 1.853 1.146 3.794 1.374 5.768l1.986-0.229C58.577 25.099 58.077 23.002 57.339 21z" fill="#84bf41" data-fill-palette-color="accent"></path><path d="M54 29c-4.418 0-8 3.582-8 8s3.582 8 8 8 8-3.582 8-8S58.418 29 54 29zM57.553 39.895l-4-2C53.214 37.725 53 37.379 53 37v-5h2v4.382l3.447 1.724L57.553 39.895z" fill="#84bf41" data-fill-palette-color="accent"></path><path d="M18 10c0-4.418-3.582-8-8-8s-8 3.582-8 8 3.582 8 8 8S18 14.418 18 10zM5.607 7.44c0.809-0.816 2.12-0.816 2.929 0L10 8.918l1.464-1.478c0.809-0.816 2.12-0.816 2.929 0 0.809 0.816 0.809 2.139 0 2.955L10 14.828l-4.393-4.433C4.798 9.58 4.798 8.256 5.607 7.44z" fill="#84bf41" data-fill-palette-color="accent"></path><polygon points="39,49 39,52 47,52 45,49 " fill="#84bf41" data-fill-palette-color="accent"></polygon><polygon points="17,52 25,52 25,49 19,49 " fill="#84bf41" data-fill-palette-color="accent"></polygon><rect x="19" y="53" width="6" height="9" fill="#84bf41" data-fill-palette-color="accent"></rect><rect x="39" y="53" width="6" height="9" fill="#84bf41" data-fill-palette-color="accent"></rect><path d="M38 62V43H26v19h4v-2c0-1.105 0.895-2 2-2s2 0.895 2 2v2H38zM31 56h-2v-2h2V56zM31 52h-2v-2h2V52zM31 48h-2v-2h2V48zM33 46h2v2h-2V46zM33 50h2v2h-2V50zM33 56v-2h2v2H33z" fill="#84bf41" data-fill-palette-color="accent"></path><polygon points="31,37 31,39 28,39 28,42 36,42 36,39 33,39 33,37 " fill="#84bf41" data-fill-palette-color="accent"></polygon><path d="M10 46c4.418 0 8-3.582 8-8s-3.582-8-8-8-8 3.582-8 8S5.582 46 10 46zM10 39c-1.654 0-3-1.346-3-3 0-1.302 0.839-2.402 2-2.816V32h2v1.184c1.161 0.414 2 1.514 2 2.816h-2c0-0.551-0.449-1-1-1s-1 0.449-1 1 0.449 1 1 1c1.654 0 3 1.346 3 3 0 1.302-0.839 2.402-2 2.816V44H9v-1.184C7.839 42.402 7 41.302 7 40h2c0 0.551 0.449 1 1 1s1-0.449 1-1S10.551 39 10 39z" fill="#84bf41" data-fill-palette-color="accent"></path><path d="M53 2c-4.962 0-9 4.038-9 9s4.038 9 9 9 9-4.038 9-9S57.962 2 53 2zM57.783 16.097c-0.668-1.966-2.527-3.387-4.723-3.387-1.38 0-2.63 0.56-3.54 1.46-0.55 0.557-0.971 1.242-1.214 2.008C46.894 14.897 46 13.053 46 11c0-3.86 3.14-7 7-7s7 3.14 7 7C60 13.01 59.144 14.819 57.783 16.097z" fill="#84bf41" data-fill-palette-color="accent"></path><circle cx="53.06" cy="9.71" r="3.0" fill="#84bf41" data-fill-palette-color="accent"></circle></svg></g></svg></g></svg></g><defs></defs></svg><rect width="395.52" height="78.29855073547273" fill="none" stroke="none" visibility="hidden"></rect></g></svg></g></svg>