<svg xmlns="http://www.w3.org/2000/svg" version="1.1" xmlns:xlink="http://www.w3.org/1999/xlink" xmlns:svgjs="http://svgjs.dev/svgjs" width="2000" height="373" viewBox="0 0 2000 373"><g transform="matrix(1,0,0,1,-1.2121212121212466,5.58724111885607)"><svg viewBox="0 0 396 74" data-background-color="#ffffff" preserveAspectRatio="xMidYMid meet" height="373" width="2000" xmlns="http://www.w3.org/2000/svg" xmlns:xlink="http://www.w3.org/1999/xlink"><g id="tight-bounds" transform="matrix(1,0,0,1,0.2400000000000091,0.08337482018475839)"><svg viewBox="0 0 395.52 73.83325035963047" height="73.83325035963047" width="395.52"><g><svg viewBox="0 0 513.8992457165564 95.93156267348242" height="73.83325035963047" width="395.52"><g transform="matrix(1,0,0,1,0,0.4212445955271633)"><svg viewBox="0 0 395.52 95.08907348242809" height="95.08907348242809" width="395.52"><g id="textblocktransform"><svg viewBox="0 0 395.52 95.08907348242809" height="95.08907348242809" width="395.52" id="textblock"><g><svg viewBox="0 0 395.52 95.08907348242809" height="95.08907348242809" width="395.52"><g transform="matrix(1,0,0,1,0,0)"><svg width="395.52" viewBox="0.9 -36.77 187.79 45.150000000000006" height="95.08907348242809" data-palette-color="#84bf41"><g class="wordmark-text-0" data-fill-palette-color="primary" id="text-0"><path d="M24.68-32.75L23.03-29.58Q22.75-29.03 22.39-28.8 22.03-28.58 21.53-28.58L21.53-28.58Q21.03-28.58 20.4-28.96 19.78-29.35 18.93-29.83 18.07-30.3 16.94-30.69 15.8-31.08 14.25-31.08L14.25-31.08Q12.85-31.08 11.81-30.74 10.78-30.4 10.06-29.8 9.35-29.2 9-28.36 8.65-27.53 8.65-26.53L8.65-26.53Q8.65-25.25 9.36-24.4 10.08-23.55 11.25-22.95 12.43-22.35 13.93-21.88 15.43-21.4 16.99-20.86 18.55-20.33 20.05-19.61 21.55-18.9 22.73-17.81 23.9-16.73 24.61-15.15 25.33-13.58 25.33-11.33L25.33-11.33Q25.33-8.88 24.49-6.74 23.65-4.6 22.04-3.01 20.43-1.43 18.1-0.51 15.78 0.4 12.78 0.4L12.78 0.4Q11.05 0.4 9.38 0.06 7.7-0.28 6.16-0.9 4.63-1.53 3.29-2.4 1.95-3.28 0.9-4.35L0.9-4.35 2.85-7.58Q3.13-7.93 3.51-8.16 3.9-8.4 4.38-8.4L4.38-8.4Q5-8.4 5.73-7.89 6.45-7.38 7.44-6.75 8.43-6.13 9.76-5.61 11.1-5.1 12.98-5.1L12.98-5.1Q15.85-5.1 17.43-6.46 19-7.83 19-10.38L19-10.38Q19-11.8 18.29-12.7 17.57-13.6 16.4-14.21 15.23-14.83 13.73-15.25 12.23-15.68 10.68-16.18 9.13-16.68 7.63-17.38 6.13-18.07 4.95-19.2 3.78-20.33 3.06-22.01 2.35-23.7 2.35-26.18L2.35-26.18Q2.35-28.15 3.14-30.03 3.93-31.9 5.44-33.35 6.95-34.8 9.15-35.68 11.35-36.55 14.18-36.55L14.18-36.55Q17.38-36.55 20.08-35.55 22.78-34.55 24.68-32.75L24.68-32.75ZM41.07-26.05L41.07-26.05Q43.95-26.05 46.29-25.13 48.62-24.2 50.27-22.5 51.92-20.8 52.82-18.35 53.72-15.9 53.72-12.88L53.72-12.88Q53.72-9.83 52.82-7.38 51.92-4.93 50.27-3.2 48.62-1.48 46.29-0.55 43.95 0.38 41.07 0.38L41.07 0.38Q38.2 0.38 35.85-0.55 33.5-1.48 31.84-3.2 30.17-4.93 29.26-7.38 28.35-9.83 28.35-12.88L28.35-12.88Q28.35-15.9 29.26-18.35 30.17-20.8 31.84-22.5 33.5-24.2 35.85-25.13 38.2-26.05 41.07-26.05ZM41.07-4.38L41.07-4.38Q44.27-4.38 45.81-6.53 47.35-8.68 47.35-12.83L47.35-12.83Q47.35-16.98 45.81-19.15 44.27-21.33 41.07-21.33L41.07-21.33Q37.82-21.33 36.27-19.14 34.72-16.95 34.72-12.83L34.72-12.83Q34.72-8.7 36.27-6.54 37.82-4.38 41.07-4.38ZM65.82 0L59.65 0 59.65-21 57.42-21.35Q56.7-21.48 56.26-21.85 55.82-22.23 55.82-22.9L55.82-22.9 55.82-25.43 59.65-25.43 59.65-27.33Q59.65-29.53 60.31-31.28 60.97-33.02 62.21-34.25 63.45-35.48 65.22-36.13 67-36.77 69.22-36.77L69.22-36.77Q71-36.77 72.52-36.3L72.52-36.3 72.4-33.2Q72.34-32.48 71.72-32.3 71.09-32.13 70.27-32.13L70.27-32.13Q69.17-32.13 68.31-31.89 67.45-31.65 66.84-31.06 66.25-30.48 65.93-29.51 65.62-28.55 65.62-27.13L65.62-27.13 65.62-25.43 72.3-25.43 72.3-21.03 65.82-21.03 65.82 0ZM84.49 0.4L84.49 0.4Q81.17 0.4 79.37-1.49 77.57-3.38 77.57-6.7L77.57-6.7 77.57-21.03 74.97-21.03Q74.47-21.03 74.11-21.35 73.74-21.68 73.74-22.33L73.74-22.33 73.74-24.78 77.87-25.45 79.17-32.45Q79.27-32.95 79.63-33.23 79.99-33.5 80.54-33.5L80.54-33.5 83.74-33.5 83.74-25.43 90.49-25.43 90.49-21.03 83.74-21.03 83.74-7.13Q83.74-5.93 84.34-5.25 84.94-4.58 85.94-4.58L85.94-4.58Q86.52-4.58 86.91-4.71 87.29-4.85 87.58-5 87.87-5.15 88.09-5.29 88.32-5.43 88.54-5.43L88.54-5.43Q88.82-5.43 88.99-5.29 89.17-5.15 89.37-4.88L89.37-4.88 91.22-1.88Q89.87-0.75 88.12-0.18 86.37 0.4 84.49 0.4ZM118.49-25.65L104.52 7.05Q104.24 7.7 103.8 8.04 103.37 8.38 102.47 8.38L102.47 8.38 97.87 8.38 102.67-1.9 92.29-25.65 97.69-25.65Q98.44-25.65 98.84-25.3 99.24-24.95 99.44-24.5L99.44-24.5 104.92-11.2Q105.19-10.55 105.39-9.85 105.59-9.15 105.74-8.45L105.74-8.45Q105.94-9.18 106.18-9.85 106.42-10.53 106.69-11.23L106.69-11.23 111.84-24.5Q112.04-25 112.5-25.33 112.97-25.65 113.54-25.65L113.54-25.65 118.49-25.65ZM152.94-36.15L152.94 0 146.16 0 146.16-15.8 129.21-15.8 129.21 0 122.44 0 122.44-36.15 129.21-36.15 129.21-20.6 146.16-20.6 146.16-36.15 152.94-36.15ZM170.06-14.13L167.19-14.13 167.19 0 160.46 0 160.46-36.15 171.49-36.15Q175.19-36.15 177.82-35.39 180.46-34.63 182.15-33.25 183.84-31.88 184.62-29.96 185.41-28.05 185.41-25.75L185.41-25.75Q185.41-23.93 184.87-22.3 184.34-20.68 183.32-19.35 182.31-18.03 180.82-17.03 179.34-16.03 177.44-15.43L177.44-15.43Q178.71-14.7 179.64-13.35L179.64-13.35 188.69 0 182.64 0Q181.76 0 181.15-0.35 180.54-0.7 180.11-1.35L180.11-1.35 172.51-12.93Q172.09-13.58 171.57-13.85 171.06-14.13 170.06-14.13L170.06-14.13ZM167.19-30.95L167.19-18.95 171.39-18.95Q173.28-18.95 174.7-19.43 176.11-19.9 177.02-20.74 177.94-21.58 178.39-22.73 178.84-23.88 178.84-25.25L178.84-25.25Q178.84-28 177.02-29.48 175.21-30.95 171.49-30.95L171.49-30.95 167.19-30.95Z" fill="#84bf41" data-fill-palette-color="primary"></path></g></svg></g></svg></g></svg></g></svg></g><g transform="matrix(1,0,0,1,417.9682481114377,0)"><svg viewBox="0 0 95.93099760511873 95.93156267348242" height="95.93156267348242" width="95.93099760511873"><g><svg xmlns="http://www.w3.org/2000/svg" data-name="Layer 1" viewBox="5.000042208164654 4.9997600111804985 89.99994985647785 90.0004799888195" x="0" y="0" height="95.93156267348242" width="95.93099760511873" class="icon-icon-0" data-fill-palette-color="accent" id="icon-0"><path d="M15.577 28.777H26.632A8.047 8.047 0 0 1 34.607 35.707l2.542 18.249c0.358 2.58-0.904 5.292-3.502 5.169a3.003 3.003 0 0 1-2.91-2.956l-0.938 35.814a3.099 3.099 0 0 1-3.097 3.017H15.507a3.099 3.099 0 0 1-3.097-3.017L11.472 56.169a3.003 3.003 0 0 1-2.91 2.956c-2.599 0.122-3.861-2.589-3.502-5.169L7.602 35.707A8.047 8.047 0 0 1 15.577 28.777ZM30.364 19.515a9.26 9.26 0 1 0-9.259 9.26A9.26 9.26 0 0 0 30.364 19.515ZM93.626 55.079a0.969 0.969 0 0 0 0.962-0.829 43.949 43.949 0 0 0 0-12.001 0.969 0.969 0 0 0-0.962-0.828H82.298A31.54 31.54 0 0 0 78.178 31.485l8.013-8.013a0.969 0.969 0 0 0 0.094-1.265 43.247 43.247 0 0 0-8.492-8.492 0.969 0.969 0 0 0-1.265 0.094L68.515 21.822a31.544 31.544 0 0 0-9.936-4.121V6.374a0.969 0.969 0 0 0-0.829-0.963 43.942 43.942 0 0 0-12 0 0.969 0.969 0 0 0-0.829 0.963V17.701a31.53 31.53 0 0 0-9.744 4.01 14.132 14.132 0 0 1-1.369 4.249 13.051 13.051 0 0 1 5.752 9.055l0.157 1.128a17.085 17.085 0 1 1 0.56 24.723c-0.125 0.167-0.244 0.338-0.38 0.495A7.953 7.953 0 0 1 35.535 63.95l-0.285 10.88a31.523 31.523 0 0 0 9.671 3.968V90.125a0.969 0.969 0 0 0 0.829 0.963 43.941 43.941 0 0 0 12 0 0.969 0.969 0 0 0 0.829-0.963V78.798A31.544 31.544 0 0 0 68.515 74.678l8.013 8.013a0.969 0.969 0 0 0 1.265 0.094 43.247 43.247 0 0 0 8.492-8.493 0.969 0.969 0 0 0-0.094-1.264L78.178 65.015a31.54 31.54 0 0 0 4.12-9.936Z" fill="#84bf41" data-fill-palette-color="accent"></path></svg></g></svg></g></svg></g><defs></defs></svg><rect width="395.52" height="73.83325035963047" fill="none" stroke="none" visibility="hidden"></rect></g></svg></g></svg>